HIERARCHY
ROOT hip
{
	OFFSET 0.000000 0.000000 0.000000 
	CHANNELS 6 Xposition Yposition Zposition Xrotation Zrotation Yrotation
	JOINT abdomen
	{
		OFFSET 0.000000 3.402643 0.000000 
		CHANNELS 3 Xrotation Zrotation Yrotation
		JOINT chest
		{
			OFFSET 0.000000 8.438565 -0.680529 
			CHANNELS 3 Xrotation Zrotation Yrotation
			JOINT neck
			{
				OFFSET 0.000000 10.207942 -0.272212 
				CHANNELS 3 Xrotation Zrotation Yrotation
				JOINT head
				{
					OFFSET 0.000000 3.130431 0.000000 
					CHANNELS 3 Xrotation Zrotation Yrotation
					End Site
					{
						OFFSET 0.000000 3.130435 0.000000 
					}
				}
			}
			JOINT lCollar
			{
				OFFSET 3.470700 6.669187 -0.816635 
				CHANNELS 3 Yrotation Zrotation Xrotation
				JOINT lShldr
				{
					OFFSET 3.198488 0.000000 0.000000 
					CHANNELS 3 Zrotation Yrotation Xrotation
					JOINT lForeArm
					{
						OFFSET 10.139888 0.000000 0.000000 
						CHANNELS 3 Yrotation Zrotation Xrotation
						JOINT lHand
						{
							OFFSET 8.370511 0.000000 0.000000 
							CHANNELS 3 Zrotation Yrotation Xrotation
							End Site
							{
								OFFSET 4.083176 0.000000 0.000000 
							}
						}
					}
				}
			}
			JOINT rCollar
			{
				OFFSET -3.470700 6.669187 -0.816635 
				CHANNELS 3 Yrotation Zrotation Xrotation
				JOINT rShldr
				{
					OFFSET -3.198488 0.000000 0.000000 
					CHANNELS 3 Zrotation Yrotation Xrotation
					JOINT rForeArm
					{
						OFFSET -10.139888 0.000000 0.000000 
						CHANNELS 3 Yrotation Zrotation Xrotation
						JOINT rHand
						{
							OFFSET -8.370511 0.000000 0.000000 
							CHANNELS 3 Zrotation Yrotation Xrotation
							End Site
							{
								OFFSET -4.083176 0.000000 0.000000 
							}
						}
					}
				}
			}
		}
	}
	JOINT lThigh
	{
		OFFSET 5.308129 -1.633274 1.361059 
		CHANNELS 3 Xrotation Zrotation Yrotation
		JOINT lShin
		{
			OFFSET -2.041588 -20.007561 0.000000 
			CHANNELS 3 Xrotation Zrotation Yrotation
			JOINT lFoot
			{
				OFFSET 0.000000 -19.190928 -1.224953 
				CHANNELS 3 Xrotation Yrotation Zrotation
				End Site
				{
					OFFSET 0.000000 -2.449906 4.627600 
				}
			}
		}
	}
	JOINT rThigh
	{
		OFFSET -5.308129 -1.633274 1.361059 
		CHANNELS 3 Xrotation Zrotation Yrotation
		JOINT rShin
		{
			OFFSET 2.041588 -20.007561 0.000000 
			CHANNELS 3 Xrotation Zrotation Yrotation
			JOINT rFoot
			{
				OFFSET 0.000000 -19.190928 -1.224953 
				CHANNELS 3 Xrotation Yrotation Zrotation
				End Site
				{
					OFFSET 0.000000 -2.449906 4.627600 
				}
			}
		}
	}
}
MOTION
Frames: 6
Frame Time: 0.033333
1.003831 52.407825 -6.579209 0.474043 -0.585914 -0.517651 0.000000 0.000000 0.000000 -4.523349 -0.781248 0.136706 4.258532 -0.175780 -0.234404 7.003115 1.826079 -0.576190 0.535445 8.048784 -3.610057 -21.309612 -4.945561 -23.329153 0.097825 1.752978 23.944675 0.897909 -2.401576 -3.462665 -0.132018 -6.351741 -3.576073 11.668965 -9.721535 -16.475367 -0.146971 3.358314 10.359419 -5.653314 1.836526 -3.692105 -2.927599 8.898426 4.844683 17.456070 -1.953050 3.218789 -13.820712 0.860362 -7.014196 -0.225191 -7.865322 -6.732266 15.014360 2.241454 -21.369268 -10.861661 -1.063257 10.926412 
1.058725 52.454742 -6.667655 0.346924 -0.859360 -0.341905 0.000000 0.000000 0.000000 -4.101937 -0.732422 0.029294 3.963059 0.156240 -0.654294 7.314452 2.021272 -0.830595 0.408184 6.931437 -3.217133 -24.631058 -6.017620 -23.482031 0.092271 2.448224 24.618479 -0.290754 -3.010796 -3.388731 -0.632028 -3.456644 -3.179101 12.941496 -8.108292 -17.330664 -0.120993 2.837908 12.945114 -6.140803 2.118501 -3.720871 -2.880145 8.980417 4.809296 17.316229 -1.828609 3.340833 -13.618153 0.841900 -6.943947 0.448168 -7.653313 -6.806530 13.915337 2.452047 -21.022209 -10.418550 -0.989356 10.550186 
1.148953 52.484200 -6.728338 0.164733 -0.956994 -0.507905 0.000000 0.000000 0.000000 -3.623566 -0.761719 0.039059 3.346356 0.224586 -0.830072 8.413665 2.685022 -1.133856 0.386568 5.378281 -2.766467 -28.495972 -6.789148 -23.257490 -0.318563 2.811506 23.532976 -1.043069 -3.221066 -3.335672 -0.606857 -1.447307 -2.735093 16.166208 -6.643614 -19.947033 -0.139242 1.616776 17.790087 -5.842063 2.990922 -3.735677 -2.732405 8.839484 4.755334 17.213219 -1.751100 3.795697 -13.452695 0.821261 -6.897294 0.848083 -7.618801 -6.892282 13.297020 2.447408 -21.031544 -9.999722 -0.941984 10.507554 
1.234944 52.515888 -6.819586 -0.037017 -1.259710 -0.537409 0.000000 0.000000 0.000000 -3.172370 -0.712889 -0.117300 2.945744 0.175747 -1.132807 9.337893 3.934136 -1.536290 0.339755 4.012936 -2.339856 -34.230297 -5.723916 -22.892019 -5.246332 3.239018 21.434181 -1.161110 -2.201283 -3.362279 -1.069177 1.127509 -2.285260 19.238188 -4.333064 -20.769703 -0.136062 1.381265 19.468216 -5.790874 3.424724 -3.754924 -2.683839 8.986079 4.791521 17.261568 -1.643564 4.021915 -13.345698 0.810074 -6.868570 1.394487 -7.426105 -6.896077 12.327487 2.503851 -20.929754 -9.409831 -0.865089 10.333724 
1.364460 52.531494 -6.937783 -0.331177 -1.513535 -0.771989 0.000000 0.000000 0.000000 -2.614042 -0.683587 -0.263770 2.791997 0.039050 -1.425781 10.049655 5.007049 -1.891208 0.636072 2.480992 -1.828166 -41.208576 -3.223706 -22.385939 -14.560401 3.813572 20.173256 -2.687583 1.112684 -3.414439 -1.290876 3.478494 -1.750864 22.750114 -2.093976 -18.633972 -0.156396 2.026443 19.455154 -6.039353 3.654789 -3.765666 -2.713536 9.104069 4.973504 17.580238 -1.711490 4.297308 -13.290871 0.799800 -6.687312 1.834489 -7.428911 -7.102045 11.756897 2.722605 -20.418644 -9.026177 -0.821430 10.117894 
1.520852 52.526279 -7.090780 -0.443522 -1.816069 -1.104199 0.000000 0.000000 0.000000 -2.076483 -0.703116 -0.293067 2.215925 0.331861 -1.835963 12.041722 4.909334 -1.930139 0.776597 1.486433 -1.318813 -48.389259 -2.592225 -22.549736 -19.502253 4.854923 19.669703 -5.182972 3.503290 -3.496947 -1.803006 6.796439 -1.190045 25.700157 -0.452198 -15.640557 1.713883 2.884449 20.551443 -5.637968 3.963622 -3.766637 -3.025816 9.270825 5.153944 18.233202 -1.779652 4.573270 -13.519704 0.790304 -6.520924 1.902038 -7.357047 -7.105753 11.430532 2.758779 -19.869942 -8.661447 -0.799709 10.064465 
